HIERARCHY
ROOT pelvis
{
  OFFSET 0 100 0
  CHANNELS 6 Xposition Yposition Zposition Zrotation Xrotation Yrotation
  JOINT pelvis_right_femur
  {
    OFFSET -10.78128 -3.44521 -0.5502486
    CHANNELS 3 Zrotation Xrotation Yrotation
    JOINT right_femur_tibia
    {
      OFFSET -0.8047443 -44.0398 -0.1307829
      CHANNELS 3 Zrotation Xrotation Yrotation
      JOINT right_tibia_foot
      {
        OFFSET 3.006224 -47.83518 -5
        CHANNELS 3 Zrotation Xrotation Yrotation
        End Site
        {
          OFFSET 0 -5 15
        }
      }
    }
  }
  JOINT pelvis_left_femur
  {
    OFFSET 10.78128 -3.44521 -0.5502486
    CHANNELS 3 Zrotation Xrotation Yrotation
    JOINT left_femur_tibia
    {
      OFFSET 0.8047443 -44.0398 -0.1307829
      CHANNELS 3 Zrotation Xrotation Yrotation
      JOINT left_tibia_foot
      {
        OFFSET -4.370144 -48.10324 -4.275266
        CHANNELS 3 Zrotation Xrotation Yrotation
        End Site
        {
          OFFSET 0 -5 15
        }
      }
    }
  }
  JOINT pelvis_spine1
  {
    OFFSET 0 6.468898 -3.129235
    CHANNELS 3 Zrotation Xrotation Yrotation
    JOINT spine1
    {
      OFFSET 0 23.15396 4.99043
      CHANNELS 3 Zrotation Xrotation Yrotation
      JOINT spine2
      {
        OFFSET 0 20.79997 -5.064912
        CHANNELS 3 Zrotation Xrotation Yrotation
        JOINT neck
        {
          OFFSET 0 14.38658 9.616178
          CHANNELS 3 Zrotation Xrotation Yrotation
          End Site
          {
            OFFSET 0 20 0
          }
        }
      }
      JOINT right_manubrium
      {
        OFFSET -5.722621 16.35077 3.967754
        CHANNELS 3 Zrotation Xrotation Yrotation
        JOINT right_clavicle
        {
          OFFSET -13.16364 1.694482 -4.693211
          CHANNELS 3 Zrotation Xrotation Yrotation
          JOINT right_humerus
          {
            OFFSET -28.5034 -0.3100689 -2.792744
            CHANNELS 3 Zrotation Xrotation Yrotation
            JOINT right_radius
            {
              OFFSET -25.15693 0.02248979 -1.271978
              CHANNELS 3 Zrotation Xrotation Yrotation
              End Site
              {
                OFFSET -15 0 0
              }
            }
          }
        }
      }
      JOINT left_manubrium
      {
        OFFSET 5.722621 16.35077 3.967754
        CHANNELS 3 Zrotation Xrotation Yrotation
        JOINT left_clavicle
        {
          OFFSET 13.16364 1.694482 -4.693211
          CHANNELS 3 Zrotation Xrotation Yrotation
          JOINT left_humerus
          {
            OFFSET 29.39168 -1.063119 -2.237045
            CHANNELS 3 Zrotation Xrotation Yrotation
            JOINT left_radius
            {
              OFFSET 24.59957 -0.9528479 0.9047498
              CHANNELS 3 Zrotation Xrotation Yrotation
              End Site
              {
                OFFSET 15 -0 -0
              }
            }
          }
        }
      }
    }
  }
}
MOTION
Frames: 13
Frame Time: 0.0416666666667
0 103.5113 0 1.014101 -0.4245283 0.07411147 3.412555 -15.79449 10.69262 -0 39.47041 -0 -4.948975 -18.6112 -4.066388 -7.487268 10.37325 -23.94569 -0 4.627276 -0 11.06751 -16.0238 28.04583 -4.161407 -4.130212 4.704286 3.098405 9.1115 -7.694829 1.451589 22.41483 6.644891 2.022861 -25.5589 10.38423 5.858304 -20.18956 11.54331 85.7849 35.2931 -18.95479 -0 0 16.13375 -5.990496 7.925771 4.70442 4.67636 -18.30441 -1.031533 -94.26404 27.42472 22.85892 0 0 -14.86821 7.500439 16.55932 5.36119
0.3058269 103.5802 1.421861 0.7511124 -0.282057 0.1439468 3.775677 -17.12829 10.48583 -0 39.06093 -0 -5.2258 -17.30277 -3.909497 -7.244595 10.45331 -23.61082 -0 4.711714 -0 10.63153 -16.44762 27.78245 -3.863652 -3.923759 4.687 2.934623 9.215128 -7.677065 1.528138 22.26278 6.709369 2.229195 -25.60861 10.37595 5.825094 -20.14671 11.49743 85.94874 35.28859 -19.03059 -0 0 16.00308 -6.279906 8.166028 4.641988 5.012543 -18.69911 -1.060911 -94.09969 27.2166 22.64452 0 0 -15.364 7.975377 16.72755 5.092932
0.5935318 103.5759 3.166319 0.1802955 -0.1923307 0.2451589 4.40209 -19.90092 9.591745 -0 37.78777 -0 -5.949144 -13.80801 -3.433789 -6.653387 10.7831 -22.66316 -0 4.845554 -0 9.114304 -17.59809 26.76537 -3.180161 -3.363463 4.511628 2.531801 9.487524 -7.627354 1.645543 22.02863 6.929358 2.713191 -25.63676 10.31387 5.585021 -20.01769 11.4232 86.5446 34.94165 -19.31534 -0 0 15.43425 -7.392243 8.771245 4.735445 5.680417 -19.70357 -1.34975 -93.65908 27.09468 22.0591 0 0 -16.75838 8.430658 17.19533 5.123373
0.8614689 103.456 5.189139 -0.2909632 0.1610765 0.3492417 5.102768 -22.71767 8.969995 -0 35.33081 -0 -6.260751 -11.82171 -3.123033 -6.206798 11.19222 -21.8795 -0 5.023017 -0 7.858663 -18.69923 25.82108 -2.61828 -2.899834 4.442822 2.310235 9.546466 -7.652615 1.72996 21.72374 7.078567 3.082684 -25.69289 10.24323 5.408832 -19.8442 11.32292 86.91265 34.69203 -19.68341 -0 0 15.13865 -7.914033 9.125699 4.613671 6.353535 -20.47612 -1.453333 -93.28633 26.9813 21.4484 0 0 -18.12052 8.810645 17.36168 5.052134
1.106025 103.1888 7.505355 -0.7265803 0.7140084 0.4538283 5.865059 -25.70493 8.42112 -0 31.87313 -0 -6.382689 -10.43952 -2.856827 -5.82163 11.72409 -21.10408 -0 5.36284 -0 6.660668 -19.81679 24.76971 -2.12639 -2.463512 4.389869 2.213387 9.492447 -7.738308 1.789478 21.36342 7.217574 3.404002 -25.79203 10.18213 5.261404 -19.59455 11.21385 87.19971 34.54346 -20.15022 -0 0 14.84983 -8.197514 9.417283 4.426235 7.025335 -21.16739 -1.462786 -92.85794 26.83523 20.70729 0 0 -19.58821 9.166678 17.3376 4.886118
1.322957 102.792 10.12499 -1.119676 1.559556 0.5732794 6.749595 -28.65248 8.186899 -0 27.79109 -0 -6.273694 -9.880319 -2.712074 -5.530364 12.33555 -20.46589 -0 6.119421 -0 5.551046 -20.84708 23.69037 -1.742355 -2.117418 4.375306 2.272656 9.265813 -7.888934 1.834972 20.93617 7.335026 3.656706 -25.96952 10.16833 5.235766 -19.23717 11.07222 87.32015 34.70043 -20.71186 -0 0 14.62145 -8.012521 9.622731 4.087244 7.634436 -21.64499 -1.275594 -92.53137 26.80152 20.04309 0 0 -20.9739 9.374821 17.10707 4.801607
1.510731 102.3544 13.08463 -1.500762 2.755186 0.7581629 7.876556 -31.30455 8.549526 -0 23.84156 -0 -5.948564 -10.15753 -2.757828 -5.334976 12.91556 -20.04535 -0 7.8012 -0 4.42912 -21.65153 22.60669 -1.4655 -1.881969 4.406473 2.486317 8.804953 -8.078259 1.892797 20.4307 7.421804 3.839911 -26.24257 10.24668 5.426961 -18.7078 10.8477 87.1743 35.35008 -21.29937 -0 0 14.51955 -7.120098 9.692997 3.480277 8.119496 -21.74387 -0.7848193 -92.50133 27.02326 19.70762 0 0 -21.91778 9.347289 16.62545 4.968827
1.673963 102.0556 16.47721 -1.910789 4.167868 1.110184 9.286045 -33.15486 9.689834 -0 21.36508 -0 -5.512828 -11.07152 -3.060396 -5.211976 13.29165 -19.83784 -0 11.20316 -0 3.021629 -21.99837 21.45582 -1.270085 -1.71084 4.439755 2.801946 8.058127 -8.226615 1.994398 19.90299 7.467607 3.954584 -26.53761 10.45421 5.878859 -17.89773 10.4613 86.66603 36.52489 -21.71956 -0 0 14.58215 -5.375139 9.506567 2.489409 8.37028 -21.25673 0.04610318 -92.94902 27.6134 19.9057 0 0 -21.78761 9.034246 15.8237 5.48842
1.832874 102.0053 20.47264 -2.34873 5.198771 1.733707 10.41269 -33.99458 10.54374 -0 20.5763 -0 -5.425064 -10.82075 -3.259123 -5.057287 13.54613 -19.30679 -0 15.9683 -0 1.042669 -21.88679 19.7754 -1.109982 -1.411847 4.221267 3.096406 7.365013 -8.281261 2.069144 19.54031 7.576002 4.043419 -26.72766 10.71608 6.245753 -16.87437 10.04437 86.2403 37.51334 -21.91293 -0 0 14.22973 -3.979164 9.287352 1.717134 8.265283 -20.589 0.7190299 -93.31238 28.16687 20.05149 0 0 -20.8849 8.592998 14.78742 6.048534
2.059685 101.4604 25.24269 -2.460056 5.003868 2.493282 9.092469 -35.69859 6.306325 -0 12.69591 -0 -6.721015 -3.220796 -1.320912 -4.86357 14.8545 -16.31797 -0 15.22427 -0 -0.6341629 -22.78352 15.97797 -1.089628 -0.8919303 3.252597 3.425579 8.444992 -8.656159 1.592787 19.43769 8.161631 4.123447 -27.32506 10.52329 4.764895 -16.93584 10.73388 88.50929 35.12637 -23.3099 -0 0 11.0574 -8.371687 10.48342 4.737111 7.877432 -22.57296 -0.7252596 -90.66008 26.47782 17.50554 0 0 -24.92973 8.175527 13.74515 5.896571
2.290783 98.64694 31.53703 -0.29539 1.677286 3.007329 2.730064 -32.33714 -4.558333 0 -8.903688 0 -9.191188 8.010376 0.6736154 -6.260064 19.32913 -8.033627 -0 4.345556 -0 0.8370409 -24.38182 10.72447 -1.487736 -3.061858 2.921526 3.548459 11.30039 -9.461898 0.7895362 20.58614 6.781871 1.524131 -27.56348 8.545073 -3.87471 -20.27318 11.4258 97.34887 18.50756 -27.28797 -0 0 4.07082 -19.15766 7.914884 12.53622 6.579058 -28.57092 -4.905956 -82.87545 20.595 10.11966 0 0 -40.15766 6.600495 11.08555 6.102128
2.131609 98.11069 38.75408 -2.227063 0.5304247 3.711667 7.973715 -28.69711 5.245535 -0 14.44672 -0 -10.89209 0.9629874 -5.523194 -3.620213 21.78568 -10.96683 -0 21.09064 -0 -2.968322 -18.04297 13.31364 0.8700566 -3.739739 1.769659 2.199781 8.543306 -8.597537 2.639372 21.58779 5.233083 0.7942628 -25.1747 9.721716 -2.229807 -16.50112 8.858864 96.65141 22.76113 -25.96171 -0 0 2.958401 -12.1162 8.965349 7.107197 5.859126 -24.15165 -1.803921 -84.55504 25.8003 10.03107 0 0 -31.6894 6.590621 14.20203 8.340011
2.015082 98.26126 45.68162 -2.734675 0.04990026 4.135251 8.69892 -27.48311 5.894695 -0 17.94378 -0 -11.23363 -1.248608 -5.584129 -3.026062 20.16784 -11.96223 -0 27.71404 -0 -4.364609 -16.00277 13.22486 1.307927 -2.851469 1.496976 2.087056 8.295748 -8.301721 2.664669 21.87636 5.626259 1.255094 -24.67461 10.00928 -0.7749066 -15.56799 8.924281 95.35396 25.68678 -24.93828 -0 0 3.253775 -11.48853 10.00151 6.299458 5.49787 -23.00448 -1.711784 -85.61586 26.67013 10.73884 0 0 -28.14565 6.750657 15.12878 8.027026
